<svg width="258" height="42" viewBox="0 0 258 42" fill="none" xmlns="http://www.w3.org/2000/svg">
<path d="M0.000117302 36.5281V4.75206C0.000117302 2.20806 0.912117 0.960056 3.60012 0.960056H33.1201C42.2401 0.960056 45.3601 3.60006 45.3601 10.1761V36.5281C45.3601 39.0721 44.4481 40.3201 41.7601 40.3201H37.6801C34.9921 40.3201 34.0801 39.0721 34.0801 36.5281V6.86406C34.0801 4.80006 33.4561 4.32006 31.3921 4.32006H29.4721C28.7041 4.32006 28.3201 4.65606 28.3201 5.28006V36.8641C28.3201 37.0081 28.2721 37.1041 28.2721 37.2481C28.2721 37.3921 28.2241 37.5841 28.2241 37.7281C28.1761 37.9681 28.1281 38.1121 28.0801 38.3041C28.0801 38.3521 28.0321 38.4481 27.9841 38.5921L27.6961 39.1681L27.5041 39.3601C27.3601 39.5521 27.2161 39.6481 27.0241 39.7921C26.9761 39.7921 26.9761 39.8401 26.9281 39.8401C26.7841 39.9841 26.5921 39.9361 26.4001 40.0801C26.3521 40.0801 26.2561 40.1281 26.1121 40.1761C25.8241 40.2241 25.4881 40.2721 25.1041 40.3201H20.2561C20.0641 40.3201 19.8721 40.2721 19.6801 40.2721C19.5361 40.2241 19.3441 40.2241 19.2001 40.1761C18.7681 40.0321 18.3841 39.8401 18.0961 39.6481L18.0481 39.6001C18.0001 39.6001 18.0001 39.6001 18.0001 39.5521C17.8561 39.4081 17.7121 39.2641 17.6641 39.1681C17.5681 39.1201 17.5201 38.9761 17.4721 38.8321C17.4241 38.7841 17.3761 38.7361 17.3281 38.5921C17.3281 38.5441 17.2801 38.4481 17.2321 38.3041C17.2321 38.1601 17.1841 38.1601 17.1841 38.0161C17.1361 37.9681 17.1361 37.8721 17.1361 37.7281C17.0881 37.5841 17.0881 37.3921 17.0401 37.2481V6.86406C17.0401 4.80006 16.4161 4.32006 14.3521 4.32006H12.4321C11.6641 4.32006 11.2801 4.65606 11.2801 5.28006V36.5281C11.2801 39.0721 10.3681 40.3201 7.68012 40.3201H3.60012C0.912117 40.3201 0.000117302 39.0721 0.000117302 36.5281ZM88.1007 12.6241C88.1007 21.1201 83.6847 24.6241 75.3807 25.6321V36.5281C75.3807 39.0721 74.4687 40.3201 71.7807 40.3201H67.4607C64.7727 40.3201 63.8607 39.0721 63.8607 36.5281V25.6321C55.5567 24.6241 51.1407 21.1201 51.1407 12.6241V5.76006C51.1407 2.25606 53.0607 0.480057 56.9007 0.480057C60.7407 0.480057 62.6607 2.25606 62.6607 5.76006V15.8401C62.6607 20.5921 65.0607 22.5601 69.6207 22.5601C74.1807 22.5601 76.5807 20.5921 76.5807 15.8401V5.76006C76.5807 2.25606 78.5007 0.480057 82.3407 0.480057C86.1807 0.480057 88.1007 2.25606 88.1007 5.76006V12.6241ZM126.388 5.76006V30.2401H130.468C131.668 30.2401 132.244 30.8161 132.244 31.9201C132.244 33.0241 131.668 33.6001 130.468 33.6001H126.388V36.5281C126.388 39.0721 125.476 40.3201 122.788 40.3201H118.468C115.78 40.3201 114.868 39.0721 114.868 36.5281V33.6001H96.2919C94.3719 33.6001 93.2679 33.3121 92.9319 32.6881C92.5959 32.0641 92.4039 31.4881 92.4039 30.9121C92.4039 30.1441 92.5959 29.1841 92.9799 28.0801L100.708 4.99206C101.812 1.72806 103.156 0.480057 105.796 0.480057C108.052 0.480057 109.588 0.960056 110.308 1.92006C111.028 2.88006 111.364 3.88806 111.364 4.89606C111.364 5.71206 111.172 6.62406 110.836 7.68006L104.02 28.4161C103.876 28.8481 103.78 29.1841 103.78 29.4241C103.78 29.8081 103.828 30.2401 105.364 30.2401H114.868V5.76006C114.868 2.25606 116.788 0.480057 120.628 0.480057C124.468 0.480057 126.388 2.25606 126.388 5.76006ZM135.609 25.1041V16.1761C135.609 4.99206 142.041 5.72205e-05 154.089 5.72205e-05C165.657 5.72205e-05 171.609 4.41606 171.609 11.8561V13.1521C171.609 15.6961 170.697 16.9441 168.009 16.9441H163.689C161.001 16.9441 160.089 15.6961 160.089 13.1521V10.5601C160.089 5.56806 158.409 3.36006 153.849 3.36006C149.289 3.36006 147.129 5.61606 147.129 12.0001V29.2801C147.129 35.6641 149.289 37.9201 153.849 37.9201C158.409 37.9201 160.089 35.7121 160.089 30.7201V28.1281C160.089 25.5841 161.001 24.3361 163.689 24.3361H168.009C170.697 24.3361 171.609 25.5841 171.609 28.1281V29.4241C171.609 36.8641 165.657 41.2801 154.089 41.2801C142.041 41.2801 135.609 36.3841 135.609 25.1041ZM195.855 36.9601C200.319 36.9601 202.815 34.7041 202.815 28.3201V5.76006C202.815 2.25606 204.735 0.480057 208.575 0.480057C212.415 0.480057 214.335 2.25606 214.335 5.76006V24.1441C214.335 35.4241 207.807 40.3201 195.855 40.3201C183.807 40.3201 177.375 35.4241 177.375 24.1441V5.76006C177.375 2.25606 179.295 0.480057 183.135 0.480057C186.975 0.480057 188.895 2.25606 188.895 5.76006V28.3201C188.895 34.7041 191.391 36.9601 195.855 36.9601ZM232.078 36.5281V5.28006C232.078 4.65606 231.694 4.32006 230.926 4.32006H230.302C229.582 4.32006 229.198 4.65606 229.198 5.28006C229.198 7.63206 227.278 9.36006 223.438 9.36006C219.598 9.36006 217.678 7.68006 217.678 4.80006V3.31206C217.678 1.63206 218.35 0.960056 220.318 0.960056H255.358C257.326 0.960056 257.998 1.63206 257.998 3.31206V4.80006C257.998 7.68006 256.078 9.36006 252.238 9.36006C248.398 9.36006 246.478 7.63206 246.478 5.28006C246.478 4.65606 246.094 4.32006 245.374 4.32006H244.75C243.982 4.32006 243.598 4.65606 243.598 5.28006V36.5281C243.598 39.0721 242.686 40.3201 239.998 40.3201H235.678C232.99 40.3201 232.078 39.0721 232.078 36.5281Z" fill="#FF7E67"/>
</svg>
